<?xml version="1.0" encoding="UTF-8"?>
<svg xmlns="http://www.w3.org/2000/svg" width="512" height="640" viewBox="0 0 512 640" shape-rendering="crispEdges">
  <defs>
    <!-- PROJECT: Lucian — dark armor, cyan glow, dual light guns -->

    <!-- SHADOW -->
    <g id="shadow">
      <ellipse cx="32" cy="57" rx="10" ry="3" fill="#000" fill-opacity="0.2"/>
    </g>

    <!-- VISOR/HELMET — dark with cyan glow slit -->
    <g id="helm">
      <rect x="21" y="9" width="22" height="6" fill="#1E293B"/>
      <rect x="20" y="11" width="24" height="3" fill="#0F172A"/>
      <rect x="22" y="8" width="20" height="2" fill="#334155"/>
      <!-- visor glow -->
      <rect x="24" y="12" width="16" height="2" fill="#22D3EE"/>
      <rect x="24" y="12" width="16" height="1" fill="#67E8F9" fill-opacity="0.8"/>
      <!-- side plates -->
      <rect x="19" y="11" width="2" height="5" fill="#334155"/>
      <rect x="43" y="11" width="2" height="5" fill="#334155"/>
      <!-- top ridge -->
      <rect x="28" y="7" width="8" height="2" fill="#334155"/>
      <rect x="30" y="6" width="4" height="2" fill="#475569"/>
    </g>

    <!-- FACE — dark skin, visible below visor -->
    <g id="face">
      <rect x="21" y="15" width="22" height="13" fill="#8B6914"/>
      <rect x="21" y="15" width="1" height="13" fill="#7A5A10" fill-opacity="0.4"/>
      <rect x="42" y="15" width="1" height="13" fill="#7A5A10" fill-opacity="0.4"/>
      <rect x="22" y="27" width="20" height="1" fill="#7A5A10" fill-opacity="0.3"/>
    </g>

    <!-- EYES — cyan glow (PROJECT) -->
    <g id="ec">
      <rect x="25" y="19" width="4" height="3" fill="#0D1119"/>
      <rect x="26" y="19" width="3" height="3" fill="#22D3EE"/>
      <rect x="26" y="19" width="2" height="2" fill="#67E8F9"/>
      <rect x="28" y="19" width="1" height="1" fill="#FFF" fill-opacity="0.9"/>
      <rect x="35" y="19" width="4" height="3" fill="#0D1119"/>
      <rect x="36" y="19" width="3" height="3" fill="#22D3EE"/>
      <rect x="36" y="19" width="2" height="2" fill="#67E8F9"/>
      <rect x="38" y="19" width="1" height="1" fill="#FFF" fill-opacity="0.9"/>
    </g>
    <g id="ea"> <!-- eyes amber/fire (ult charging) -->
      <rect x="25" y="19" width="4" height="3" fill="#0D1119"/>
      <rect x="26" y="19" width="3" height="3" fill="#F59E0B"/>
      <rect x="26" y="19" width="2" height="2" fill="#FBBF24"/>
      <rect x="28" y="19" width="1" height="1" fill="#FFF" fill-opacity="0.9"/>
      <rect x="35" y="19" width="4" height="3" fill="#0D1119"/>
      <rect x="36" y="19" width="3" height="3" fill="#F59E0B"/>
      <rect x="36" y="19" width="2" height="2" fill="#FBBF24"/>
      <rect x="38" y="19" width="1" height="1" fill="#FFF" fill-opacity="0.9"/>
    </g>
    <g id="ex"> <!-- eyes closed -->
      <rect x="25" y="20" width="4" height="1" fill="#0D1119"/>
      <rect x="35" y="20" width="4" height="1" fill="#0D1119"/>
    </g>
    <g id="eh"> <!-- eyes happy -->
      <rect x="25" y="20" width="4" height="1" fill="#22D3EE"/>
      <rect x="25" y="19" width="1" height="2" fill="#22D3EE"/>
      <rect x="28" y="19" width="1" height="2" fill="#22D3EE"/>
      <rect x="35" y="20" width="4" height="1" fill="#22D3EE"/>
      <rect x="35" y="19" width="1" height="2" fill="#22D3EE"/>
      <rect x="38" y="19" width="1" height="2" fill="#22D3EE"/>
    </g>
    <g id="ew"> <!-- eyes determined -->
      <rect x="25" y="19" width="4" height="3" fill="#0D1119"/>
      <rect x="26" y="19" width="2" height="2" fill="#22D3EE"/>
      <rect x="28" y="19" width="1" height="1" fill="#FFF" fill-opacity="0.7"/>
      <rect x="35" y="19" width="4" height="3" fill="#0D1119"/>
      <rect x="36" y="19" width="2" height="2" fill="#22D3EE"/>
      <rect x="38" y="19" width="1" height="1" fill="#FFF" fill-opacity="0.7"/>
      <!-- angled brows -->
      <rect x="24" y="17" width="5" height="1" fill="#1E293B"/>
      <rect x="35" y="17" width="5" height="1" fill="#1E293B"/>
    </g>
    <g id="es"> <!-- eyes overcharged glow -->
      <rect x="24" y="18" width="5" height="4" fill="#0D1119"/>
      <rect x="25" y="18" width="4" height="4" fill="#22D3EE"/>
      <rect x="25" y="18" width="2" height="2" fill="#FFF" fill-opacity="0.8"/>
      <rect x="28" y="21" width="1" height="1" fill="#FFF" fill-opacity="0.5"/>
      <rect x="35" y="18" width="5" height="4" fill="#0D1119"/>
      <rect x="36" y="18" width="4" height="4" fill="#22D3EE"/>
      <rect x="36" y="18" width="2" height="2" fill="#FFF" fill-opacity="0.8"/>
      <rect x="39" y="21" width="1" height="1" fill="#FFF" fill-opacity="0.5"/>
      <!-- glow overflow -->
      <rect x="23" y="19" width="1" height="2" fill="#22D3EE" fill-opacity="0.4"/>
      <rect x="40" y="19" width="1" height="2" fill="#22D3EE" fill-opacity="0.4"/>
    </g>

    <!-- MOUTHS -->
    <g id="mn"><rect x="30" y="25" width="4" height="1" fill="#5C3A08"/></g>
    <g id="mh">
      <rect x="29" y="25" width="6" height="1" fill="#5C3A08"/>
      <rect x="30" y="26" width="4" height="1" fill="#5C3A08"/>
    </g>
    <g id="mg">
      <rect x="28" y="25" width="8" height="1" fill="#5C3A08"/>
      <rect x="29" y="26" width="6" height="1" fill="#7A4A10"/>
    </g>
    <g id="mo">
      <rect x="30" y="25" width="4" height="2" fill="#5C3A08"/>
      <rect x="31" y="26" width="2" height="1" fill="#7A4A10"/>
    </g>
    <g id="mc">
      <rect x="30" y="25" width="4" height="1" fill="#5C3A08"/>
      <rect x="33" y="24" width="2" height="1" fill="#5C3A08"/>
    </g>

    <!-- ARMOR BODY — dark gunmetal with cyan accent lines -->
    <g id="armor">
      <rect x="23" y="28" width="18" height="14" fill="#1E293B"/>
      <rect x="22" y="29" width="1" height="12" fill="#0F172A"/>
      <rect x="41" y="29" width="1" height="12" fill="#0F172A"/>
      <!-- shoulder plates -->
      <rect x="21" y="28" width="3" height="3" fill="#334155"/>
      <rect x="40" y="28" width="3" height="3" fill="#334155"/>
      <rect x="21" y="28" width="3" height="1" fill="#475569"/>
      <rect x="40" y="28" width="3" height="1" fill="#475569"/>
      <!-- collar -->
      <rect x="25" y="27" width="14" height="2" fill="#334155"/>
      <rect x="26" y="27" width="12" height="1" fill="#475569"/>
      <!-- cyan accent lines -->
      <rect x="32" y="29" width="1" height="12" fill="#22D3EE" fill-opacity="0.5"/>
      <rect x="25" y="34" width="14" height="1" fill="#22D3EE" fill-opacity="0.3"/>
      <!-- chest plate highlight -->
      <rect x="27" y="30" width="4" height="3" fill="#334155"/>
      <rect x="33" y="30" width="4" height="3" fill="#334155"/>
      <!-- red accent marks (PROJECT style) -->
      <rect x="28" y="31" width="2" height="1" fill="#EF4444" fill-opacity="0.7"/>
      <rect x="34" y="31" width="2" height="1" fill="#EF4444" fill-opacity="0.7"/>
    </g>
    <g id="armor-l"> <!-- lean left -->
      <rect x="22" y="28" width="18" height="14" fill="#1E293B"/>
      <rect x="21" y="29" width="1" height="12" fill="#0F172A"/>
      <rect x="40" y="29" width="1" height="12" fill="#0F172A"/>
      <rect x="20" y="28" width="3" height="3" fill="#334155"/>
      <rect x="39" y="28" width="3" height="3" fill="#334155"/>
      <rect x="24" y="27" width="14" height="2" fill="#334155"/>
      <rect x="31" y="29" width="1" height="12" fill="#22D3EE" fill-opacity="0.5"/>
      <rect x="24" y="34" width="14" height="1" fill="#22D3EE" fill-opacity="0.3"/>
      <rect x="27" y="31" width="2" height="1" fill="#EF4444" fill-opacity="0.7"/>
      <rect x="33" y="31" width="2" height="1" fill="#EF4444" fill-opacity="0.7"/>
    </g>
    <g id="armor-r"> <!-- lean right -->
      <rect x="24" y="28" width="18" height="14" fill="#1E293B"/>
      <rect x="23" y="29" width="1" height="12" fill="#0F172A"/>
      <rect x="42" y="29" width="1" height="12" fill="#0F172A"/>
      <rect x="22" y="28" width="3" height="3" fill="#334155"/>
      <rect x="41" y="28" width="3" height="3" fill="#334155"/>
      <rect x="26" y="27" width="14" height="2" fill="#334155"/>
      <rect x="33" y="29" width="1" height="12" fill="#22D3EE" fill-opacity="0.5"/>
      <rect x="26" y="34" width="14" height="1" fill="#22D3EE" fill-opacity="0.3"/>
      <rect x="29" y="31" width="2" height="1" fill="#EF4444" fill-opacity="0.7"/>
      <rect x="35" y="31" width="2" height="1" fill="#EF4444" fill-opacity="0.7"/>
    </g>

    <!-- LEGS — armored dark -->
    <g id="ls">
      <rect x="25" y="42" width="5" height="8" fill="#1E293B"/>
      <rect x="34" y="42" width="5" height="8" fill="#1E293B"/>
      <!-- cyan knee accents -->
      <rect x="26" y="44" width="3" height="1" fill="#22D3EE" fill-opacity="0.35"/>
      <rect x="35" y="44" width="3" height="1" fill="#22D3EE" fill-opacity="0.35"/>
      <!-- boots -->
      <rect x="24" y="50" width="7" height="3" fill="#0F172A"/>
      <rect x="33" y="50" width="7" height="3" fill="#0F172A"/>
      <rect x="24" y="50" width="7" height="1" fill="#334155"/>
      <rect x="33" y="50" width="7" height="1" fill="#334155"/>
    </g>
    <g id="la">
      <rect x="24" y="42" width="5" height="7" fill="#1E293B"/>
      <rect x="35" y="42" width="5" height="9" fill="#1E293B"/>
      <rect x="25" y="44" width="3" height="1" fill="#22D3EE" fill-opacity="0.35"/>
      <rect x="36" y="44" width="3" height="1" fill="#22D3EE" fill-opacity="0.35"/>
      <rect x="23" y="49" width="7" height="3" fill="#0F172A"/>
      <rect x="34" y="51" width="7" height="3" fill="#0F172A"/>
    </g>
    <g id="lb">
      <rect x="26" y="42" width="5" height="9" fill="#1E293B"/>
      <rect x="33" y="42" width="5" height="7" fill="#1E293B"/>
      <rect x="27" y="44" width="3" height="1" fill="#22D3EE" fill-opacity="0.35"/>
      <rect x="34" y="44" width="3" height="1" fill="#22D3EE" fill-opacity="0.35"/>
      <rect x="25" y="51" width="7" height="3" fill="#0F172A"/>
      <rect x="32" y="49" width="7" height="3" fill="#0F172A"/>
    </g>
    <g id="lj">
      <rect x="25" y="42" width="5" height="6" fill="#1E293B"/>
      <rect x="34" y="42" width="5" height="6" fill="#1E293B"/>
      <rect x="24" y="48" width="7" height="3" fill="#0F172A"/>
      <rect x="33" y="48" width="7" height="3" fill="#0F172A"/>
    </g>
    <g id="lx">
      <rect x="24" y="42" width="16" height="4" fill="#1E293B"/>
      <rect x="23" y="44" width="6" height="4" fill="#0F172A"/>
      <rect x="35" y="44" width="6" height="4" fill="#0F172A"/>
    </g>

    <!-- ARMS + LIGHT GUNS — cyan-glowing barrels -->
    <g id="ad"> <!-- arms down, guns holstered -->
      <rect x="19" y="29" width="3" height="7" fill="#1E293B"/>
      <rect x="42" y="29" width="3" height="7" fill="#1E293B"/>
      <!-- armored gauntlets -->
      <rect x="19" y="29" width="3" height="1" fill="#334155"/>
      <rect x="42" y="29" width="3" height="1" fill="#334155"/>
      <rect x="19" y="36" width="3" height="2" fill="#8B6914"/>
      <rect x="42" y="36" width="3" height="2" fill="#8B6914"/>
      <!-- guns pointing down -->
      <rect x="19" y="38" width="2" height="5" fill="#475569"/>
      <rect x="43" y="38" width="2" height="5" fill="#475569"/>
      <rect x="19" y="40" width="2" height="1" fill="#22D3EE" fill-opacity="0.6"/>
      <rect x="43" y="40" width="2" height="1" fill="#22D3EE" fill-opacity="0.6"/>
    </g>
    <g id="asa"> <!-- arms swing a -->
      <rect x="18" y="29" width="3" height="6" fill="#1E293B"/>
      <rect x="43" y="30" width="3" height="5" fill="#1E293B"/>
      <rect x="18" y="35" width="3" height="2" fill="#8B6914"/>
      <rect x="43" y="35" width="3" height="2" fill="#8B6914"/>
      <rect x="18" y="37" width="2" height="4" fill="#475569"/>
      <rect x="44" y="37" width="2" height="4" fill="#475569"/>
      <rect x="18" y="39" width="2" height="1" fill="#22D3EE" fill-opacity="0.5"/>
      <rect x="44" y="39" width="2" height="1" fill="#22D3EE" fill-opacity="0.5"/>
    </g>
    <g id="asb"> <!-- arms swing b -->
      <rect x="19" y="30" width="3" height="5" fill="#1E293B"/>
      <rect x="42" y="29" width="3" height="6" fill="#1E293B"/>
      <rect x="19" y="35" width="3" height="2" fill="#8B6914"/>
      <rect x="42" y="35" width="3" height="2" fill="#8B6914"/>
      <rect x="19" y="37" width="2" height="4" fill="#475569"/>
      <rect x="43" y="37" width="2" height="4" fill="#475569"/>
      <rect x="19" y="39" width="2" height="1" fill="#22D3EE" fill-opacity="0.5"/>
      <rect x="43" y="39" width="2" height="1" fill="#22D3EE" fill-opacity="0.5"/>
    </g>
    <g id="ag-fwd"> <!-- right gun forward (Q) -->
      <rect x="19" y="29" width="3" height="6" fill="#1E293B"/>
      <rect x="42" y="28" width="3" height="4" fill="#1E293B"/>
      <!-- right hand + light gun forward -->
      <rect x="45" y="28" width="3" height="3" fill="#8B6914"/>
      <rect x="48" y="27" width="8" height="3" fill="#475569"/>
      <rect x="48" y="27" width="2" height="1" fill="#334155"/>
      <rect x="55" y="27" width="1" height="3" fill="#334155"/>
      <!-- gun glow barrel -->
      <rect x="50" y="28" width="5" height="1" fill="#22D3EE" fill-opacity="0.7"/>
      <rect x="56" y="27" width="2" height="3" fill="#22D3EE" fill-opacity="0.5"/>
      <!-- left hand stays down -->
      <rect x="19" y="35" width="3" height="2" fill="#8B6914"/>
      <rect x="19" y="37" width="2" height="4" fill="#475569"/>
    </g>
    <g id="ag-dual"> <!-- both light guns out (W/R) -->
      <rect x="15" y="28" width="3" height="3" fill="#1E293B"/>
      <rect x="42" y="28" width="3" height="3" fill="#1E293B"/>
      <!-- left gun -->
      <rect x="12" y="28" width="3" height="3" fill="#8B6914"/>
      <rect x="4" y="27" width="8" height="3" fill="#475569"/>
      <rect x="4" y="27" width="1" height="3" fill="#334155"/>
      <rect x="5" y="28" width="5" height="1" fill="#22D3EE" fill-opacity="0.7"/>
      <rect x="2" y="27" width="2" height="3" fill="#22D3EE" fill-opacity="0.5"/>
      <!-- right gun -->
      <rect x="45" y="28" width="3" height="3" fill="#8B6914"/>
      <rect x="48" y="27" width="8" height="3" fill="#475569"/>
      <rect x="55" y="27" width="1" height="3" fill="#334155"/>
      <rect x="50" y="28" width="5" height="1" fill="#22D3EE" fill-opacity="0.7"/>
      <rect x="56" y="27" width="2" height="3" fill="#22D3EE" fill-opacity="0.5"/>
    </g>
    <g id="ag-up"> <!-- guns raised (victory/ult peak) -->
      <rect x="17" y="22" width="3" height="7" fill="#1E293B"/>
      <rect x="44" y="22" width="3" height="7" fill="#1E293B"/>
      <rect x="16" y="20" width="3" height="3" fill="#8B6914"/>
      <rect x="45" y="20" width="3" height="3" fill="#8B6914"/>
      <!-- guns up -->
      <rect x="16" y="14" width="3" height="6" fill="#475569"/>
      <rect x="45" y="14" width="3" height="6" fill="#475569"/>
      <rect x="17" y="14" width="1" height="4" fill="#22D3EE" fill-opacity="0.6"/>
      <rect x="46" y="14" width="1" height="4" fill="#22D3EE" fill-opacity="0.6"/>
    </g>
    <g id="ax"> <!-- arms crossed -->
      <rect x="22" y="32" width="8" height="3" fill="#1E293B"/>
      <rect x="34" y="32" width="8" height="3" fill="#1E293B"/>
      <rect x="28" y="33" width="8" height="3" fill="#1E293B" fill-opacity="0.7"/>
    </g>

    <!-- MUZZLE FLASH — bright orange/white fire burst -->
    <g id="mf-r">
      <rect x="57" y="25" width="3" height="1" fill="#FFF" fill-opacity="0.95"/>
      <rect x="56" y="26" width="5" height="1" fill="#FBBF24"/>
      <rect x="57" y="27" width="4" height="1" fill="#F97316"/>
      <rect x="56" y="28" width="5" height="1" fill="#FBBF24"/>
      <rect x="57" y="29" width="3" height="1" fill="#FFF" fill-opacity="0.95"/>
      <rect x="58" y="24" width="1" height="6" fill="#FFF" fill-opacity="0.6"/>
      <rect x="60" y="26" width="2" height="3" fill="#F97316" fill-opacity="0.5"/>
    </g>
    <g id="mf-l">
      <rect x="0" y="25" width="3" height="1" fill="#FFF" fill-opacity="0.95"/>
      <rect x="0" y="26" width="5" height="1" fill="#FBBF24"/>
      <rect x="0" y="27" width="4" height="1" fill="#F97316"/>
      <rect x="0" y="28" width="5" height="1" fill="#FBBF24"/>
      <rect x="0" y="29" width="3" height="1" fill="#FFF" fill-opacity="0.95"/>
      <rect x="2" y="24" width="1" height="6" fill="#FFF" fill-opacity="0.6"/>
    </g>
    <g id="mf-dual">
      <rect x="57" y="26" width="4" height="1" fill="#FBBF24"/>
      <rect x="57" y="27" width="5" height="1" fill="#FFF" fill-opacity="0.9"/>
      <rect x="57" y="28" width="4" height="1" fill="#F97316"/>
      <rect x="0" y="26" width="4" height="1" fill="#FBBF24"/>
      <rect x="0" y="27" width="5" height="1" fill="#FFF" fill-opacity="0.9"/>
      <rect x="0" y="28" width="4" height="1" fill="#F97316"/>
    </g>

    <!-- BULLET TRAILS — bright cyan streaks -->
    <g id="bt-r">
      <rect x="58" y="28" width="6" height="1" fill="#22D3EE" fill-opacity="0.8"/>
      <rect x="60" y="27" width="4" height="1" fill="#67E8F9" fill-opacity="0.5"/>
      <rect x="60" y="29" width="4" height="1" fill="#67E8F9" fill-opacity="0.3"/>
    </g>
    <g id="bt-l">
      <rect x="0" y="28" width="6" height="1" fill="#22D3EE" fill-opacity="0.8"/>
      <rect x="0" y="27" width="4" height="1" fill="#67E8F9" fill-opacity="0.5"/>
      <rect x="0" y="29" width="4" height="1" fill="#67E8F9" fill-opacity="0.3"/>
    </g>

    <!-- CYAN GLOW AURA (ability activation) -->
    <g id="cyan-aura">
      <rect x="18" y="14" width="28" height="1" fill="#22D3EE" fill-opacity="0.15"/>
      <rect x="16" y="15" width="32" height="34" fill="#22D3EE" fill-opacity="0.06"/>
      <rect x="18" y="49" width="28" height="1" fill="#22D3EE" fill-opacity="0.15"/>
      <rect x="16" y="15" width="2" height="34" fill="#22D3EE" fill-opacity="0.12"/>
      <rect x="46" y="15" width="2" height="34" fill="#22D3EE" fill-opacity="0.12"/>
    </g>

    <!-- GOLD ULT AURA -->
    <g id="gld">
      <rect x="16" y="10" width="32" height="2" fill="#F59E0B" fill-opacity="0.25"/>
      <rect x="14" y="12" width="36" height="36" fill="#F59E0B" fill-opacity="0.1"/>
      <rect x="16" y="48" width="32" height="2" fill="#F59E0B" fill-opacity="0.25"/>
      <rect x="14" y="12" width="2" height="36" fill="#F97316" fill-opacity="0.18"/>
      <rect x="48" y="12" width="2" height="36" fill="#F97316" fill-opacity="0.18"/>
    </g>

    <!-- DASH AFTERIMAGE -->
    <g id="dsh">
      <rect x="8" y="28" width="3" height="8" fill="#22D3EE" fill-opacity="0.2"/>
      <rect x="12" y="26" width="3" height="12" fill="#22D3EE" fill-opacity="0.12"/>
      <rect x="4" y="30" width="3" height="4" fill="#22D3EE" fill-opacity="0.08"/>
    </g>

    <!-- RECALL RING -->
    <g id="rcl">
      <rect x="18" y="52" width="28" height="1" fill="#22D3EE" fill-opacity="0.5"/>
      <rect x="16" y="53" width="32" height="2" fill="#22D3EE" fill-opacity="0.3"/>
      <rect x="18" y="55" width="28" height="1" fill="#22D3EE" fill-opacity="0.5"/>
      <rect x="24" y="51" width="16" height="1" fill="#67E8F9" fill-opacity="0.3"/>
    </g>

    <!-- CONFETTI -->
    <g id="cft">
      <rect x="14" y="6" width="2" height="2" fill="#F97316" fill-opacity="0.7"/>
      <rect x="22" y="4" width="2" height="2" fill="#FBBF24" fill-opacity="0.7"/>
      <rect x="40" y="5" width="2" height="2" fill="#22D3EE" fill-opacity="0.7"/>
      <rect x="48" y="8" width="2" height="2" fill="#67E8F9" fill-opacity="0.7"/>
      <rect x="10" y="14" width="1" height="2" fill="#FFF" fill-opacity="0.6"/>
      <rect x="52" y="12" width="1" height="2" fill="#FFF" fill-opacity="0.6"/>
    </g>

    <!-- ZZZ -->
    <g id="zzz">
      <rect x="44" y="10" width="4" height="1" fill="#94A3B8" fill-opacity="0.5"/>
      <rect x="46" y="11" width="1" height="1" fill="#94A3B8" fill-opacity="0.5"/>
      <rect x="44" y="12" width="4" height="1" fill="#94A3B8" fill-opacity="0.5"/>
      <rect x="48" y="6" width="3" height="1" fill="#94A3B8" fill-opacity="0.35"/>
      <rect x="49" y="7" width="1" height="1" fill="#94A3B8" fill-opacity="0.35"/>
      <rect x="48" y="8" width="3" height="1" fill="#94A3B8" fill-opacity="0.35"/>
    </g>

    <!-- SWEAT -->
    <g id="swt">
      <rect x="44" y="17" width="2" height="3" fill="#60A5FA" fill-opacity="0.7"/>
      <rect x="44" y="20" width="1" height="1" fill="#60A5FA" fill-opacity="0.5"/>
    </g>

    <!-- EXCLAMATION -->
    <g id="exc">
      <rect x="46" y="8" width="2" height="6" fill="#EF4444"/>
      <rect x="46" y="16" width="2" height="2" fill="#EF4444"/>
    </g>
  </defs>

  <!-- ======== Row 0: IDLE (4 frames) — standing ready ======== -->
  <g transform="translate(0,0)"><use href="#shadow"/><use href="#armor"/><use href="#ls"/><use href="#ad"/><use href="#face"/><use href="#helm"/><use href="#ec"/><use href="#mn"/></g>
  <g transform="translate(64,0)"><use href="#shadow"/><use href="#armor"/><use href="#ls"/><use href="#ad"/><use href="#face" transform="translate(0,1)"/><use href="#helm" transform="translate(0,1)"/><use href="#ec" transform="translate(0,1)"/><use href="#mc" transform="translate(0,1)"/></g>
  <g transform="translate(128,0)"><use href="#shadow"/><use href="#armor"/><use href="#ls"/><use href="#ad"/><use href="#face"/><use href="#helm"/><use href="#ec"/><use href="#mc"/></g>
  <g transform="translate(192,0)"><use href="#shadow"/><use href="#armor"/><use href="#ls"/><use href="#ad"/><use href="#face" transform="translate(0,1)"/><use href="#helm" transform="translate(0,1)"/><use href="#ec" transform="translate(0,1)"/><use href="#mh" transform="translate(0,1)"/></g>

  <!-- ======== Row 1: WALK (6 frames) ======== -->
  <g transform="translate(0,64)"><use href="#shadow"/><use href="#armor-l"/><use href="#la"/><use href="#asa"/><use href="#face" transform="translate(-1,0)"/><use href="#helm" transform="translate(-1,0)"/><use href="#ec" transform="translate(-1,0)"/><use href="#mn" transform="translate(-1,0)"/></g>
  <g transform="translate(64,64)"><use href="#shadow"/><use href="#armor"/><use href="#ls"/><use href="#asb"/><use href="#face"/><use href="#helm"/><use href="#ec"/><use href="#mn"/></g>
  <g transform="translate(128,64)"><use href="#shadow"/><use href="#armor-r"/><use href="#lb"/><use href="#asb"/><use href="#face" transform="translate(1,0)"/><use href="#helm" transform="translate(1,0)"/><use href="#ec" transform="translate(1,0)"/><use href="#mn" transform="translate(1,0)"/></g>
  <g transform="translate(192,64)"><use href="#shadow"/><use href="#armor"/><use href="#ls"/><use href="#asa"/><use href="#face"/><use href="#helm"/><use href="#ec"/><use href="#mn"/></g>
  <g transform="translate(256,64)"><use href="#shadow"/><use href="#armor-l"/><use href="#la"/><use href="#asa"/><use href="#face" transform="translate(-1,1)"/><use href="#helm" transform="translate(-1,1)"/><use href="#ec" transform="translate(-1,1)"/><use href="#mn" transform="translate(-1,1)"/></g>
  <g transform="translate(320,64)"><use href="#shadow"/><use href="#armor-r"/><use href="#lb"/><use href="#asb"/><use href="#face" transform="translate(1,1)"/><use href="#helm" transform="translate(1,1)"/><use href="#ec" transform="translate(1,1)"/><use href="#mn" transform="translate(1,1)"/></g>

  <!-- ======== Row 2: CAST_Q (4 frames) — Piercing Light: gun forward, fires beam ======== -->
  <g transform="translate(0,128)"><use href="#shadow"/><use href="#armor"/><use href="#ls"/><use href="#ag-fwd"/><use href="#face"/><use href="#helm"/><use href="#ew"/><use href="#mo"/></g>
  <g transform="translate(64,128)"><use href="#shadow"/><use href="#armor-r"/><use href="#ls"/><use href="#ag-fwd"/><use href="#mf-r"/><use href="#bt-r"/><use href="#face" transform="translate(1,0)"/><use href="#helm" transform="translate(1,0)"/><use href="#ew" transform="translate(1,0)"/><use href="#mg" transform="translate(1,0)"/></g>
  <g transform="translate(128,128)"><use href="#shadow"/><use href="#armor"/><use href="#ls"/><use href="#ag-fwd"/><use href="#bt-r"/><use href="#face"/><use href="#helm"/><use href="#ew"/><use href="#mc"/></g>
  <g transform="translate(192,128)"><use href="#shadow"/><use href="#armor"/><use href="#ls"/><use href="#ad"/><use href="#face"/><use href="#helm"/><use href="#ec"/><use href="#mc"/></g>

  <!-- ======== Row 3: CAST_W (3 frames) — Ardent Blaze: dual shot ======== -->
  <g transform="translate(0,192)"><use href="#shadow"/><use href="#armor"/><use href="#ls"/><use href="#ag-dual"/><use href="#face"/><use href="#helm"/><use href="#ec"/><use href="#mo"/></g>
  <g transform="translate(64,192)"><use href="#shadow"/><use href="#cyan-aura"/><use href="#armor"/><use href="#ls"/><use href="#ag-dual"/><use href="#mf-dual"/><use href="#face" transform="translate(0,1)"/><use href="#helm" transform="translate(0,1)"/><use href="#ec" transform="translate(0,1)"/><use href="#mg" transform="translate(0,1)"/></g>
  <g transform="translate(128,192)"><use href="#shadow"/><use href="#armor"/><use href="#ls"/><use href="#ad"/><use href="#face"/><use href="#helm"/><use href="#ec"/><use href="#mh"/></g>

  <!-- ======== Row 4: CAST_E (4 frames) — Relentless Pursuit: dash ======== -->
  <g transform="translate(0,256)"><use href="#shadow"/><use href="#armor-r"/><use href="#la"/><use href="#asa"/><use href="#face" transform="translate(1,0)"/><use href="#helm" transform="translate(1,0)"/><use href="#ew" transform="translate(1,0)"/><use href="#mo" transform="translate(1,0)"/></g>
  <g transform="translate(64,256)"><use href="#shadow"/><use href="#dsh"/><use href="#armor-r"/><use href="#lb"/><use href="#asb"/><use href="#face" transform="translate(2,-1)"/><use href="#helm" transform="translate(2,-1)"/><use href="#ew" transform="translate(2,-1)"/><use href="#mn" transform="translate(2,-1)"/></g>
  <g transform="translate(128,256)"><use href="#shadow"/><use href="#dsh"/><use href="#armor-r"/><use href="#la"/><use href="#asa"/><use href="#face" transform="translate(3,0)"/><use href="#helm" transform="translate(3,0)"/><use href="#eh" transform="translate(3,0)"/><use href="#mc" transform="translate(3,0)"/></g>
  <g transform="translate(192,256)"><use href="#shadow"/><use href="#armor"/><use href="#ls"/><use href="#ad"/><use href="#face"/><use href="#helm"/><use href="#ec"/><use href="#mc"/></g>

  <!-- ======== Row 5: CAST_R (8 frames) — The Culling: rapid fire dual guns ======== -->
  <g transform="translate(0,320)"><use href="#shadow"/><use href="#armor"/><use href="#ls"/><use href="#ad"/><use href="#face"/><use href="#helm"/><use href="#ew"/><use href="#mo"/></g>
  <g transform="translate(64,320)"><use href="#shadow"/><use href="#gld"/><use href="#armor"/><use href="#ls"/><use href="#ag-dual"/><use href="#face" transform="translate(0,-1)"/><use href="#helm" transform="translate(0,-1)"/><use href="#es" transform="translate(0,-1)"/><use href="#mg" transform="translate(0,-1)"/></g>
  <g transform="translate(128,320)"><use href="#shadow"/><use href="#gld"/><use href="#armor"/><use href="#ls"/><use href="#ag-dual"/><use href="#mf-dual"/><use href="#face" transform="translate(0,-1)"/><use href="#helm" transform="translate(0,-1)"/><use href="#es" transform="translate(0,-1)"/><use href="#mg" transform="translate(0,-1)"/></g>
  <g transform="translate(192,320)"><use href="#shadow"/><use href="#gld"/><use href="#armor"/><use href="#ls"/><use href="#ag-dual"/><use href="#mf-dual"/><use href="#bt-r"/><use href="#bt-l"/><use href="#face" transform="translate(0,-1)"/><use href="#helm" transform="translate(0,-1)"/><use href="#es" transform="translate(0,-1)"/><use href="#mg" transform="translate(0,-1)"/></g>
  <g transform="translate(256,320)"><use href="#shadow"/><use href="#gld"/><use href="#armor"/><use href="#ls"/><use href="#ag-dual"/><use href="#mf-dual"/><use href="#bt-r"/><use href="#bt-l"/><use href="#face" transform="translate(0,-1)"/><use href="#helm" transform="translate(0,-1)"/><use href="#es" transform="translate(0,-1)"/><use href="#mg" transform="translate(0,-1)"/></g>
  <g transform="translate(320,320)"><use href="#shadow"/><use href="#gld"/><use href="#armor"/><use href="#ls"/><use href="#ag-dual"/><use href="#mf-dual"/><use href="#face"/><use href="#helm"/><use href="#es"/><use href="#mg"/></g>
  <g transform="translate(384,320)"><use href="#shadow"/><use href="#armor"/><use href="#ls"/><use href="#ag-dual"/><use href="#face" transform="translate(0,1)"/><use href="#helm" transform="translate(0,1)"/><use href="#ea" transform="translate(0,1)"/><use href="#mh" transform="translate(0,1)"/></g>
  <g transform="translate(448,320)"><use href="#shadow"/><use href="#armor"/><use href="#ls"/><use href="#ad"/><use href="#face"/><use href="#helm"/><use href="#ec"/><use href="#mc"/></g>

  <!-- ======== Row 6: VICTORY (6 frames) — guns raised ======== -->
  <g transform="translate(0,384)"><use href="#shadow"/><use href="#armor"/><use href="#ls"/><use href="#ag-up"/><use href="#face" transform="translate(0,-1)"/><use href="#helm" transform="translate(0,-1)"/><use href="#eh" transform="translate(0,-1)"/><use href="#mg" transform="translate(0,-1)"/><use href="#cft"/></g>
  <g transform="translate(64,384)"><use href="#shadow"/><use href="#armor"/><use href="#lj"/><use href="#ag-up"/><use href="#face" transform="translate(0,-3)"/><use href="#helm" transform="translate(0,-3)"/><use href="#eh" transform="translate(0,-3)"/><use href="#mg" transform="translate(0,-3)"/><use href="#cft"/></g>
  <g transform="translate(128,384)"><use href="#shadow"/><use href="#armor-r"/><use href="#ls"/><use href="#ag-up"/><use href="#face" transform="translate(1,-1)"/><use href="#helm" transform="translate(1,-1)"/><use href="#es" transform="translate(1,-1)"/><use href="#mg" transform="translate(1,-1)"/></g>
  <g transform="translate(192,384)"><use href="#shadow"/><use href="#armor-l"/><use href="#ls"/><use href="#ag-up"/><use href="#face" transform="translate(-1,-1)"/><use href="#helm" transform="translate(-1,-1)"/><use href="#eh" transform="translate(-1,-1)"/><use href="#mg" transform="translate(-1,-1)"/><use href="#cft"/></g>
  <g transform="translate(256,384)"><use href="#shadow"/><use href="#armor"/><use href="#lj"/><use href="#ag-up"/><use href="#face" transform="translate(0,-3)"/><use href="#helm" transform="translate(0,-3)"/><use href="#es" transform="translate(0,-3)"/><use href="#mg" transform="translate(0,-3)"/><use href="#cft"/></g>
  <g transform="translate(320,384)"><use href="#shadow"/><use href="#armor"/><use href="#ls"/><use href="#ag-up"/><use href="#face"/><use href="#helm"/><use href="#eh"/><use href="#mh"/></g>

  <!-- ======== Row 7: PANIC (4 frames) ======== -->
  <g transform="translate(0,448)"><use href="#shadow"/><use href="#armor-l"/><use href="#la"/><use href="#asa"/><use href="#face" transform="translate(-1,0)"/><use href="#helm" transform="translate(-1,0)"/><use href="#ew" transform="translate(-1,0)"/><use href="#mo" transform="translate(-1,0)"/><use href="#swt"/><use href="#exc"/></g>
  <g transform="translate(64,448)"><use href="#shadow"/><use href="#armor-r"/><use href="#lb"/><use href="#asb"/><use href="#face" transform="translate(1,0)"/><use href="#helm" transform="translate(1,0)"/><use href="#ew" transform="translate(1,0)"/><use href="#mo" transform="translate(1,0)"/><use href="#swt"/></g>
  <g transform="translate(128,448)"><use href="#shadow"/><use href="#armor"/><use href="#ls"/><use href="#ad"/><use href="#face" transform="translate(0,1)"/><use href="#helm" transform="translate(0,1)"/><use href="#ew" transform="translate(0,1)"/><use href="#mo" transform="translate(0,1)"/><use href="#exc"/></g>
  <g transform="translate(192,448)"><use href="#shadow"/><use href="#armor-l"/><use href="#la"/><use href="#asa"/><use href="#face" transform="translate(-1,1)"/><use href="#helm" transform="translate(-1,1)"/><use href="#ew" transform="translate(-1,1)"/><use href="#mo" transform="translate(-1,1)"/><use href="#swt"/></g>

  <!-- ======== Row 8: MEDITATE (4 frames) ======== -->
  <g transform="translate(0,512)"><use href="#shadow"/><use href="#armor"/><use href="#lx"/><use href="#ax"/><use href="#face"/><use href="#helm"/><use href="#ex"/><use href="#mn"/><use href="#zzz"/></g>
  <g transform="translate(64,512)"><use href="#shadow"/><use href="#armor"/><use href="#lx"/><use href="#ax"/><use href="#face" transform="translate(0,1)"/><use href="#helm" transform="translate(0,1)"/><use href="#ex" transform="translate(0,1)"/><use href="#mn" transform="translate(0,1)"/><use href="#zzz"/></g>
  <g transform="translate(128,512)"><use href="#shadow"/><use href="#armor"/><use href="#lx"/><use href="#ax"/><use href="#face"/><use href="#helm"/><use href="#ex"/><use href="#mn"/></g>
  <g transform="translate(192,512)"><use href="#shadow"/><use href="#armor"/><use href="#lx"/><use href="#ax"/><use href="#face" transform="translate(0,1)"/><use href="#helm" transform="translate(0,1)"/><use href="#ex" transform="translate(0,1)"/><use href="#mn" transform="translate(0,1)"/><use href="#zzz"/></g>

  <!-- ======== Row 9: RECALL (6 frames) ======== -->
  <g transform="translate(0,576)"><use href="#shadow"/><use href="#rcl"/><use href="#armor"/><use href="#ls"/><use href="#ad"/><use href="#face"/><use href="#helm"/><use href="#ec"/><use href="#mn"/></g>
  <g transform="translate(64,576)"><use href="#shadow"/><use href="#rcl"/><use href="#armor"/><use href="#ls"/><use href="#ag-dual"/><use href="#face" transform="translate(0,-1)"/><use href="#helm" transform="translate(0,-1)"/><use href="#ex" transform="translate(0,-1)"/><use href="#mn" transform="translate(0,-1)"/></g>
  <g transform="translate(128,576)"><use href="#shadow"/><use href="#rcl"/><use href="#armor"/><use href="#ls"/><use href="#ag-up"/><use href="#face" transform="translate(0,-2)"/><use href="#helm" transform="translate(0,-2)"/><use href="#ex" transform="translate(0,-2)"/><use href="#mn" transform="translate(0,-2)"/></g>
  <g transform="translate(192,576)"><use href="#shadow"/><use href="#rcl"/><use href="#armor"/><use href="#lj"/><use href="#ag-up"/><use href="#face" transform="translate(0,-3)"/><use href="#helm" transform="translate(0,-3)"/><use href="#ec" transform="translate(0,-3)"/><use href="#mh" transform="translate(0,-3)"/></g>
  <g transform="translate(256,576)"><use href="#shadow"/><use href="#rcl"/><use href="#armor"/><use href="#ls"/><use href="#ag-dual"/><use href="#face" transform="translate(0,-1)"/><use href="#helm" transform="translate(0,-1)"/><use href="#ex" transform="translate(0,-1)"/><use href="#mn" transform="translate(0,-1)"/></g>
  <g transform="translate(320,576)"><use href="#shadow"/><use href="#armor"/><use href="#ls"/><use href="#ad"/><use href="#face"/><use href="#helm"/><use href="#ec"/><use href="#mh"/></g>
</svg>
